<svg width="159" height="30" viewBox="0 0 159 30" fill="none" xmlns="http://www.w3.org/2000/svg">
<path d="M8.36578 29V5.98H0.425781V0.999998H21.5258V5.98H13.5458V29H8.36578ZM22.7502 29.5C21.8168 29.5 21.0368 29.1933 20.4102 28.58C19.7835 27.9533 19.4702 27.1867 19.4702 26.28C19.4702 25.3867 19.7835 24.62 20.4102 23.98C21.0368 23.3267 21.8168 23 22.7502 23C23.6835 23 24.4702 23.3267 25.1102 23.98C25.7502 24.62 26.0702 25.3867 26.0702 26.28C26.0702 27.1867 25.7502 27.9533 25.1102 28.58C24.4702 29.1933 23.6835 29.5 22.7502 29.5ZM30.9567 29V0.999998H35.7967L46.8367 17.48C46.9834 17.72 47.1701 18.0467 47.3967 18.46C47.6367 18.86 47.8367 19.2267 47.9967 19.56C47.9567 19.2667 47.9234 18.9133 47.8967 18.5C47.8834 18.0733 47.8767 17.7333 47.8767 17.48V0.999998H53.0367V29H48.4167L37.1567 12.4C37.0101 12.1733 36.8167 11.8533 36.5767 11.44C36.3501 11.0267 36.1567 10.6533 35.9967 10.32C36.0367 10.6533 36.0634 11.0133 36.0767 11.4C36.0901 11.7867 36.0967 12.12 36.0967 12.4V29H30.9567ZM65.5467 29.48C63.3201 29.48 61.5534 28.88 60.2467 27.68C58.9534 26.4667 58.3067 24.8267 58.3067 22.76C58.3067 21.4267 58.6401 20.26 59.3067 19.26C59.9867 18.2467 60.9267 17.4667 62.1267 16.92C63.3401 16.36 64.7534 16.08 66.3667 16.08C67.2601 16.08 68.1201 16.1667 68.9467 16.34C69.7867 16.5 70.5201 16.7333 71.1467 17.04V15.76C71.1467 14.6133 70.8201 13.7533 70.1667 13.18C69.5267 12.5933 68.5801 12.3 67.3267 12.3C66.3267 12.3 65.3001 12.48 64.2467 12.84C63.1934 13.2 62.1267 13.7333 61.0467 14.44L59.5467 10.5C60.7201 9.72667 62.0267 9.13333 63.4667 8.72C64.9067 8.29333 66.3601 8.08 67.8267 8.08C70.5734 8.08 72.6267 8.73333 73.9867 10.04C75.3467 11.3333 76.0267 13.2667 76.0267 15.84V29H71.1467V27.36C70.4534 28.0533 69.6267 28.58 68.6667 28.94C67.7201 29.3 66.6801 29.48 65.5467 29.48ZM66.7067 25.26C67.5334 25.26 68.3267 25.1 69.0867 24.78C69.8601 24.4467 70.5467 23.98 71.1467 23.38V20.96C70.5734 20.68 69.9334 20.4667 69.2267 20.32C68.5334 20.16 67.8401 20.08 67.1467 20.08C65.9067 20.08 64.9267 20.32 64.2067 20.8C63.5001 21.2667 63.1467 21.92 63.1467 22.76C63.1467 23.5467 63.4601 24.16 64.0867 24.6C64.7134 25.04 65.5867 25.26 66.7067 25.26ZM87.1464 29.48C85.5197 29.48 84.2997 29.0333 83.4864 28.14C82.6731 27.2467 82.2664 25.9133 82.2664 24.14V12.94H79.2864V8.56H82.2664V2.5L87.2264 0.119998V8.56H91.8664V12.94H87.2264V23.24C87.2264 23.88 87.3531 24.3533 87.6064 24.66C87.8731 24.9667 88.2864 25.12 88.8464 25.12C89.8331 25.12 90.9131 24.8133 92.0864 24.2L91.5064 28.56C90.8931 28.8667 90.2264 29.0933 89.5064 29.24C88.7864 29.4 87.9997 29.48 87.1464 29.48ZM102.734 29.48C100.508 29.48 98.7409 28.88 97.4342 27.68C96.1409 26.4667 95.4942 24.8267 95.4942 22.76C95.4942 21.4267 95.8276 20.26 96.4942 19.26C97.1742 18.2467 98.1142 17.4667 99.3142 16.92C100.528 16.36 101.941 16.08 103.554 16.08C104.448 16.08 105.308 16.1667 106.134 16.34C106.974 16.5 107.708 16.7333 108.334 17.04V15.76C108.334 14.6133 108.008 13.7533 107.354 13.18C106.714 12.5933 105.768 12.3 104.514 12.3C103.514 12.3 102.488 12.48 101.434 12.84C100.381 13.2 99.3142 13.7333 98.2342 14.44L96.7342 10.5C97.9076 9.72667 99.2142 9.13333 100.654 8.72C102.094 8.29333 103.548 8.08 105.014 8.08C107.761 8.08 109.814 8.73333 111.174 10.04C112.534 11.3333 113.214 13.2667 113.214 15.84V29H108.334V27.36C107.641 28.0533 106.814 28.58 105.854 28.94C104.908 29.3 103.868 29.48 102.734 29.48ZM103.894 25.26C104.721 25.26 105.514 25.1 106.274 24.78C107.048 24.4467 107.734 23.98 108.334 23.38V20.96C107.761 20.68 107.121 20.4667 106.414 20.32C105.721 20.16 105.028 20.08 104.334 20.08C103.094 20.08 102.114 20.32 101.394 20.8C100.688 21.2667 100.334 21.92 100.334 22.76C100.334 23.5467 100.648 24.16 101.274 24.6C101.901 25.04 102.774 25.26 103.894 25.26ZM119.16 29V2.38L124.16 0.119998V29H119.16ZM130.64 29V8.56H135.64V29H130.64ZM133.14 6C132.34 6 131.647 5.71333 131.06 5.14C130.487 4.55333 130.2 3.86 130.2 3.06C130.2 2.26 130.487 1.58 131.06 1.02C131.634 0.446666 132.327 0.159999 133.14 0.159999C133.98 0.159999 134.68 0.439999 135.24 0.999998C135.8 1.56 136.08 2.24667 136.08 3.06C136.08 3.87333 135.794 4.56667 135.22 5.14C134.66 5.71333 133.967 6 133.14 6ZM147.969 29.48C145.742 29.48 143.975 28.88 142.669 27.68C141.375 26.4667 140.729 24.8267 140.729 22.76C140.729 21.4267 141.062 20.26 141.729 19.26C142.409 18.2467 143.349 17.4667 144.549 16.92C145.762 16.36 147.175 16.08 148.789 16.08C149.682 16.08 150.542 16.1667 151.369 16.34C152.209 16.5 152.942 16.7333 153.569 17.04V15.76C153.569 14.6133 153.242 13.7533 152.589 13.18C151.949 12.5933 151.002 12.3 149.749 12.3C148.749 12.3 147.722 12.48 146.669 12.84C145.615 13.2 144.549 13.7333 143.469 14.44L141.969 10.5C143.142 9.72667 144.449 9.13333 145.889 8.72C147.329 8.29333 148.782 8.08 150.249 8.08C152.995 8.08 155.049 8.73333 156.409 10.04C157.769 11.3333 158.449 13.2667 158.449 15.84V29H153.569V27.36C152.875 28.0533 152.049 28.58 151.089 28.94C150.142 29.3 149.102 29.48 147.969 29.48ZM149.129 25.26C149.955 25.26 150.749 25.1 151.509 24.78C152.282 24.4467 152.969 23.98 153.569 23.38V20.96C152.995 20.68 152.355 20.4667 151.649 20.32C150.955 20.16 150.262 20.08 149.569 20.08C148.329 20.08 147.349 20.32 146.629 20.8C145.922 21.2667 145.569 21.92 145.569 22.76C145.569 23.5467 145.882 24.16 146.509 24.6C147.135 25.04 148.009 25.26 149.129 25.26Z" fill="white"/>
</svg>
